<svg width="102" height="94" viewBox="0 0 102 94" fill="none" xmlns="http://www.w3.org/2000/svg">
<path d="M18.7599 1.32341C17.4165 2.0431 16.3129 3.17059 15.6052 4.51401C12.5465 10.3795 15.3534 16.221 20.1633 18.2361C21.2908 18.7039 22.5263 18.9679 23.8217 18.9679C25.2731 18.9679 26.6405 18.644 27.864 18.0682C31.0786 16.5569 33.3096 13.2823 33.3096 9.4919C33.3096 2.61885 26.0168 -2.53893 18.7599 1.32341ZM94.3394 25.9848C92.0004 23.5978 89.2776 21.7986 86.3629 20.5991C83.4601 19.3996 80.3534 18.7999 77.2587 18.7999C71.2253 18.7999 65.1799 21.0789 60.5259 25.637L48.6271 37.2959C44.2729 41.6621 39.9188 46.0402 35.5647 50.4063C34.4252 51.7257 33.2856 52.6374 32.422 53.2251C31.6304 53.7649 30.275 54.6884 28.2598 55.2642C25.4171 56.0798 22.2144 55.9599 18.9038 54.6285C16.2889 53.5729 14.1299 51.6178 12.8704 49.0989C7.8566 39.0592 15.0775 29.0675 24.5894 29.0675C31.2226 29.0675 36.7282 33.9134 37.7597 40.2467L46.6599 31.5744C43.8411 25.8528 38.8513 21.3788 32.7699 19.2317C30.4189 21.3908 27.2763 22.7102 23.8337 22.7102C20.6191 22.7102 17.6564 21.5587 15.3654 19.6276C6.35726 23.274 0 32.1022 0 42.4298C0 56.0079 11.0113 67.0072 24.5894 67.0072C25.1412 67.0072 25.6929 66.9952 26.2327 66.9472C26.2327 66.9472 29.1474 66.7552 31.8223 65.9276C36.4883 64.4882 40.5306 60.9138 41.1423 60.374L43.7931 57.7711L51.8177 49.9025L69.762 67.8468L58.8946 78.4983C56.5077 80.8372 53.3531 82.1206 50.0065 82.1206C46.564 82.1206 43.3493 80.7772 40.9503 78.3183C38.7793 76.0993 37.5199 73.2325 37.3399 70.1618C33.6695 71.0135 29.9871 71.8531 26.3167 72.7047C26.9884 77.6106 29.1834 82.3605 32.9258 86.1749C35.2648 88.5619 37.9876 90.3611 40.9024 91.5486C43.8051 92.7481 46.9118 93.3478 50.0065 93.3478C56.0519 93.3478 62.0972 91.0688 66.7512 86.5108L94.0036 59.7983C103.432 50.5622 103.587 35.4128 94.3394 25.9848ZM86.1349 51.7857L73.9122 63.7686L55.9799 45.8363L68.3825 33.6735C70.7695 31.3345 73.9242 30.0511 77.2587 30.0511C80.7013 30.0511 83.9159 31.4065 86.3148 33.8534C88.6898 36.2764 89.9733 39.467 89.9373 42.8616C89.9013 46.2561 88.5579 49.4107 86.1349 51.7857Z" fill="url(#paint0_linear_303_445)"/>
<defs>
<linearGradient id="paint0_linear_303_445" x1="80.9064" y1="73.1012" x2="12.223" y2="5.43068" gradientUnits="userSpaceOnUse">
<stop stop-color="#5878FF"/>
<stop offset="0.1302" stop-color="#5598E4"/>
<stop offset="0.3054" stop-color="#51BDC6"/>
<stop offset="0.4815" stop-color="#4FD9AE"/>
<stop offset="0.6564" stop-color="#4DEE9D"/>
<stop offset="0.8299" stop-color="#4BFA92"/>
<stop offset="1" stop-color="#4BFE8F"/>
</linearGradient>
</defs>
</svg>
